<?xml version="1.0" encoding="utf-8"?>
<!-- Generator: Adobe Illustrator 27.2.0, SVG Export Plug-In . SVG Version: 6.00 Build 0)  -->
<svg version="1.1" id="Layer_1" xmlns="http://www.w3.org/2000/svg" xmlns:xlink="http://www.w3.org/1999/xlink" x="0px" y="0px"
	 viewBox="0 0 1080 288.35" style="enable-background:new 0 0 1080 288.35;" xml:space="preserve">
<style type="text/css">
	.st0{fill:url(#SVGID_1_);stroke:url(#SVGID_00000178180532793862854460000004107556807814067848_);stroke-miterlimit:10;}
	.st1{fill:#FFFFFF;}
</style>
<g>
	<g>
		
			<linearGradient id="SVGID_1_" gradientUnits="userSpaceOnUse" x1="189.8807" y1="51.9342" x2="393.407" y2="51.9342" gradientTransform="matrix(0.5 0.866 -0.866 0.5 95.8806 -134.3637)">
			<stop  offset="0" style="stop-color:#0071BC"/>
			<stop  offset="1" style="stop-color:#0000FF"/>
		</linearGradient>
		
			<linearGradient id="SVGID_00000043442001115799813410000016836000489991584186_" gradientUnits="userSpaceOnUse" x1="189.3807" y1="51.9342" x2="393.907" y2="51.9342" gradientTransform="matrix(0.5 0.866 -0.866 0.5 95.8806 -134.3637)">
			<stop  offset="0" style="stop-color:#0071BC"/>
			<stop  offset="1" style="stop-color:#0000FF"/>
		</linearGradient>
		
			<polygon style="fill:url(#SVGID_1_);stroke:url(#SVGID_00000043442001115799813410000016836000489991584186_);stroke-miterlimit:10;" points="
			298.49,202.93 298.49,85.42 196.73,26.67 94.96,85.42 94.96,202.93 196.73,261.68 		"/>
		<g>
			<g>
				<path class="st1" d="M137.76,131.82c0.58-1.52,1.74-2.27,3.25-2.8c17.97-6.31,35.92-12.65,53.87-19.01
					c1.26-0.45,2.44-0.45,3.69-0.01c18.02,6.37,36.05,12.73,54.08,19.09c2.57,0.91,3.63,2.85,2.72,4.92
					c-0.55,1.24-1.63,1.75-2.82,2.17c-8.13,2.88-16.25,5.77-24.37,8.65c-9.86,3.5-19.72,6.99-29.56,10.52
					c-1.3,0.47-2.49,0.46-3.79,0c-18.08-6.45-36.16-12.88-54.25-19.29c-1.38-0.49-2.27-1.34-2.82-2.64
					C137.76,132.9,137.76,132.36,137.76,131.82z"/>
			</g>
			<g>
				<path class="st1" d="M162.04,151.03c4.28,1.52,8.32,2.94,12.36,4.38c6.13,2.18,12.27,4.35,18.4,6.57c2.76,1,5.45,0.87,8.2-0.11
					c9.66-3.47,19.34-6.89,29.01-10.32c0.39-0.14,0.78-0.27,1.32-0.46c0.03,0.46,0.07,0.82,0.07,1.19c0,4.41-0.04,8.83,0.02,13.24
					c0.03,2.29-0.85,4.08-2.55,5.54c-2.65,2.27-5.82,3.52-9.09,4.55c-8.69,2.74-17.62,3.62-26.69,3.24
					c-7.94-0.33-15.73-1.52-23.09-4.64c-1.92-0.81-3.72-1.97-5.41-3.2c-1.81-1.31-2.59-3.22-2.56-5.51
					c0.06-4.37,0.02-8.75,0.02-13.12C162.04,151.99,162.04,151.62,162.04,151.03z"/>
			</g>
			<g>
				<path class="st1" d="M240.47,147.81c2.28-0.81,4.51-1.6,6.91-2.46c0,0.52,0,0.92,0,1.32c0,9.25,0.01,18.5-0.01,27.75
					c0,0.71,0.19,1.15,0.78,1.61c3.67,2.88,3.59,8.13-0.07,11.04c-0.37,0.29-0.66,0.92-0.66,1.4c-0.05,5.26-0.02,10.52-0.04,15.77
					c-0.01,2.47-1.98,4.1-4.25,3.58c-1.6-0.37-2.65-1.75-2.65-3.57c-0.01-5.18-0.02-10.36,0.01-15.54c0.01-0.79-0.19-1.3-0.85-1.82
					c-3.52-2.73-3.54-8-0.03-10.77c0.7-0.55,0.88-1.09,0.88-1.91c-0.02-8.37-0.01-16.73-0.01-25.1
					C240.47,148.7,240.47,148.28,240.47,147.81z"/>
			</g>
		</g>
	</g>
	<g>
		<path class="st1" d="M411.68,114.01h-39.26v21.52h34.71v20.01h-34.71v23.34h39.26v20.76h-65.17V93.25h65.17V114.01z"/>
		<path class="st1" d="M460.63,113.86c11.22,0,20.92,5.15,26.07,12.88V87.49h25.92v112.16H486.7v-12.12
			c-4.7,7.73-13.64,13.34-26.07,13.34c-20.76,0-37.29-16.98-37.29-43.65S439.87,113.86,460.63,113.86z M468.21,136.44
			c-9.7,0-18.49,7.28-18.49,20.76s8.79,21.07,18.49,21.07c9.85,0,18.49-7.43,18.49-20.92S478.06,136.44,468.21,136.44z"/>
		<path class="st1" d="M614.92,199.65h-25.92v-11.52c-5.15,7.27-14.25,12.43-25.62,12.43c-19.55,0-32.74-13.49-32.74-36.07v-49.41
			h25.77V161c0,11.52,6.52,17.88,16.22,17.88c10,0,16.37-6.37,16.37-17.88v-45.92h25.92V199.65z"/>
		<path class="st1" d="M671.15,115.68c14.85,0,27.28,8.18,32.59,19.1V87.49h10.61v112.16h-10.61v-18.49
			c-4.85,10.91-16.37,19.7-32.74,19.7c-22.74,0-39.56-16.82-39.56-42.74C631.44,132.2,648.27,115.68,671.15,115.68z M672.97,124.93
			c-17.43,0-30.77,12.13-30.77,33.19c0,20.92,13.34,33.5,30.77,33.5c16.98,0,30.77-12.73,30.77-33.34
			C703.74,137.66,689.95,124.93,672.97,124.93z"/>
		<path class="st1" d="M773.31,115.68c16.67,0,28.04,8.94,32.74,19.4v-18.19h10.61v82.75h-10.61v-18.34
			c-4.85,10.61-16.37,19.55-32.89,19.55c-22.58,0-39.41-16.82-39.41-42.74C733.75,132.2,750.57,115.68,773.31,115.68z
			 M775.28,124.93c-17.43,0-30.77,12.13-30.77,33.19c0,20.92,13.34,33.5,30.77,33.5c16.98,0,30.77-12.73,30.77-33.34
			C806.05,137.66,792.25,124.93,775.28,124.93z"/>
		<path class="st1" d="M843.93,125.83h-11.52v-8.94h11.52V96.13h10.76v20.76h22.73v8.94H854.7v51.38c0,10.16,3.49,13.34,13.03,13.34
			h9.7v9.09h-11.37c-14.4,0-22.13-5.91-22.13-22.43V125.83z"/>
		<path class="st1" d="M929.57,115.68c16.67,0,28.04,8.94,32.74,19.4v-18.19h10.61v82.75H962.3v-18.34
			c-4.85,10.61-16.37,19.55-32.89,19.55c-22.58,0-39.41-16.82-39.41-42.74C890.01,132.2,906.83,115.68,929.57,115.68z
			 M931.54,124.93c-17.43,0-30.77,12.13-30.77,33.19c0,20.92,13.34,33.5,30.77,33.5c16.98,0,30.77-12.73,30.77-33.34
			C962.3,137.66,948.51,124.93,931.54,124.93z"/>
	</g>
</g>
</svg>
